# xmcd
#
# Track frame offsets: 
#        150
#        12285
#        29050
#        50225
#        64155
#        78782
#        94760
#        112042
#        130960
#        145065
#        156947
#        179755
#        201442
#        223172
#        235950
#        250650
#        264497
#        277995
#        291945
#        310495
#
# Disc length: 4290 seconds
#
# Revision: 1
# Processed by: cddbd v1.5.1PL2 Copyright (c) Steve Scherf et al.
# Submitted via: ExactAudioCopy v0.95a5
#
DISCID=3a10c014
DTITLE=Various Artist - Everlasting Sentimental Hits 5
DYEAR=1900
DGENRE=Oldies
TTITLE0=Lynn Anderson - Hello, Darling
TTITLE1=Carpenters - Yesterday once more
TTITLE2=Lobo - How can i tell her
TTITLE3=Debbie Reinolds - Am i that easy to forget
TTITLE4=Engelbert Humperdinck - Release me
TTITLE5=Elvis Presley - It's now or never
TTITLE6=Lobo - I'd love you to want me
TTITLE7=John Lennon - Jealous guy
TTITLE8=Matt Monroe - Walk away
TTITLE9=Mary Hopkin - Goodbye
TTITLE10=Stylistics - You make me feel brand new
TTITLE11=Black Sabbat - Changes
TTITLE12=Christopher Cross - Sailing
TTITLE13=Johnny Tilotson - Judy Judy Judy
TTITLE14=Andy Williams - Dear heart
TTITLE15=The brother four - Try to remember
TTITLE16=Nilson Schmillson - Without you
TTITLE17=Glen Campbell - By the time i get to phoenix
TTITLE18=Carpenter - Superstar
TTITLE19=Christopher Plummer - Edelweiss
EXTD=
EXTT0=
EXTT1=
EXTT2=
EXTT3=
EXTT4=
EXTT5=
EXTT6=
EXTT7=
EXTT8=
EXTT9=
EXTT10=
EXTT11=
EXTT12=
EXTT13=
EXTT14=
EXTT15=
EXTT16=
EXTT17=
EXTT18=
EXTT19=
PLAYORDER=
